<svg xmlns="http://www.w3.org/2000/svg" xmlns:xlink="http://www.w3.org/1999/xlink" width="320" zoomAndPan="magnify" viewBox="0 0 240 60" height="80" preserveAspectRatio="xMidYMid meet" version="1.2"><defs><clipPath id="91dafe2a6d"><path d="M 10 8.265625 L 31.601562 8.265625 L 31.601562 29.867188 L 10 29.867188 Z M 10 8.265625 "/></clipPath><clipPath id="9ba6f3ed59"><path d="M 9.671875 27.789062 L 29.515625 7.949219 L 31.957031 10.386719 L 12.113281 30.230469 Z M 9.671875 27.789062 "/></clipPath><clipPath id="9901ec058d"><path d="M 10.308594 27.152344 L 28.871094 8.59375 C 29.039062 8.425781 29.269531 8.332031 29.507812 8.332031 C 29.746094 8.332031 29.972656 8.425781 30.144531 8.59375 L 31.308594 9.761719 C 31.480469 9.929688 31.574219 10.160156 31.574219 10.398438 C 31.574219 10.636719 31.480469 10.863281 31.308594 11.035156 L 12.75 29.59375 C 12.582031 29.761719 12.351562 29.855469 12.113281 29.855469 C 11.875 29.855469 11.644531 29.761719 11.476562 29.59375 L 10.308594 28.425781 C 10.140625 28.257812 10.046875 28.027344 10.046875 27.789062 C 10.046875 27.550781 10.140625 27.324219 10.308594 27.152344 Z M 10.308594 27.152344 "/></clipPath><clipPath id="b4f0f54a01"><path d="M 27.933594 8.867188 L 43.867188 8.867188 L 43.867188 24.800781 L 27.933594 24.800781 Z M 27.933594 8.867188 "/></clipPath><clipPath id="00a565d2df"><path d="M 41.785156 25.160156 L 27.558594 10.933594 L 29.996094 8.492188 L 44.226562 22.722656 Z M 41.785156 25.160156 "/></clipPath><clipPath id="0319b8fc0f"><path d="M 41.148438 24.523438 L 28.199219 11.574219 C 28.03125 11.40625 27.9375 11.175781 27.9375 10.9375 C 27.9375 10.699219 28.03125 10.472656 28.199219 10.300781 L 29.367188 9.136719 C 29.535156 8.964844 29.765625 8.871094 30.003906 8.871094 C 30.242188 8.871094 30.46875 8.964844 30.640625 9.136719 L 43.589844 22.085938 C 43.757812 22.253906 43.851562 22.484375 43.851562 22.722656 C 43.851562 22.960938 43.757812 23.1875 43.589844 23.359375 L 42.421875 24.523438 C 42.253906 24.691406 42.023438 24.789062 41.785156 24.789062 C 41.546875 24.789062 41.316406 24.691406 41.148438 24.523438 Z M 41.148438 24.523438 "/></clipPath><clipPath id="f2f8e649b2"><path d="M 33.464844 21.535156 L 42.933594 21.535156 L 42.933594 31 L 33.464844 31 Z M 33.464844 21.535156 "/></clipPath><clipPath id="45f0fb0fbd"><path d="M 33.117188 28.886719 L 40.839844 21.167969 L 43.277344 23.609375 L 35.558594 31.328125 Z M 33.117188 28.886719 "/></clipPath><clipPath id="b672731aa4"><path d="M 33.753906 28.25 L 40.195312 21.8125 C 40.363281 21.640625 40.59375 21.546875 40.832031 21.546875 C 41.070312 21.546875 41.300781 21.640625 41.46875 21.8125 L 42.636719 22.976562 C 42.804688 23.148438 42.898438 23.375 42.898438 23.613281 C 42.898438 23.851562 42.804688 24.082031 42.636719 24.25 L 36.195312 30.691406 C 36.027344 30.859375 35.796875 30.953125 35.558594 30.953125 C 35.320312 30.953125 35.089844 30.859375 34.921875 30.691406 L 33.753906 29.523438 C 33.585938 29.355469 33.492188 29.125 33.492188 28.886719 C 33.492188 28.648438 33.585938 28.421875 33.753906 28.25 Z M 33.753906 28.25 "/></clipPath><clipPath id="0a13ef678b"><path d="M 26.667969 19.933594 L 37.199219 19.933594 L 37.199219 30.464844 L 26.667969 30.464844 Z M 26.667969 19.933594 "/></clipPath><clipPath id="e9e93acd0b"><path d="M 35.117188 30.804688 L 26.328125 22.015625 L 28.769531 19.578125 L 37.554688 28.363281 Z M 35.117188 30.804688 "/></clipPath><clipPath id="bc2e651241"><path d="M 34.480469 30.167969 L 26.972656 22.660156 C 26.804688 22.488281 26.707031 22.261719 26.707031 22.023438 C 26.707031 21.785156 26.804688 21.554688 26.972656 21.386719 L 28.140625 20.21875 C 28.308594 20.050781 28.535156 19.957031 28.773438 19.957031 C 29.015625 19.957031 29.242188 20.050781 29.410156 20.21875 L 36.917969 27.726562 C 37.089844 27.894531 37.183594 28.125 37.183594 28.363281 C 37.183594 28.601562 37.089844 28.832031 36.917969 29 L 35.753906 30.167969 C 35.585938 30.335938 35.355469 30.429688 35.117188 30.429688 C 34.878906 30.429688 34.648438 30.335938 34.480469 30.167969 Z M 34.480469 30.167969 "/></clipPath><clipPath id="78f92042b4"><path d="M 11.464844 21.066406 L 29.800781 21.066406 L 29.800781 39.398438 L 11.464844 39.398438 Z M 11.464844 21.066406 "/></clipPath><clipPath id="aa556b9956"><path d="M 11.128906 37.296875 L 27.699219 20.722656 L 30.140625 23.160156 L 13.566406 39.734375 Z M 11.128906 37.296875 "/></clipPath><clipPath id="c226100e9b"><path d="M 11.761719 36.660156 L 27.0625 21.363281 C 27.230469 21.191406 27.460938 21.097656 27.699219 21.097656 C 27.9375 21.097656 28.164062 21.191406 28.335938 21.363281 L 29.5 22.527344 C 29.667969 22.695312 29.765625 22.925781 29.765625 23.164062 C 29.765625 23.402344 29.667969 23.632812 29.5 23.800781 L 14.203125 39.097656 C 14.035156 39.269531 13.804688 39.363281 13.566406 39.363281 C 13.328125 39.363281 13.097656 39.269531 12.929688 39.097656 L 11.761719 37.933594 C 11.59375 37.761719 11.5 37.535156 11.5 37.296875 C 11.5 37.058594 11.59375 36.828125 11.761719 36.660156 Z M 11.761719 36.660156 "/></clipPath><clipPath id="f4af630e32"><path d="M 10.132812 25.867188 L 19.601562 25.867188 L 19.601562 35.332031 L 10.132812 35.332031 Z M 10.132812 25.867188 "/></clipPath><clipPath id="15e6138dfd"><path d="M 17.515625 35.683594 L 9.792969 27.964844 L 12.234375 25.527344 L 19.953125 33.246094 Z M 17.515625 35.683594 "/></clipPath><clipPath id="a5b18fc264"><path d="M 16.878906 35.046875 L 10.4375 28.609375 C 10.269531 28.441406 10.175781 28.210938 10.175781 27.972656 C 10.175781 27.734375 10.269531 27.503906 10.4375 27.335938 L 11.605469 26.167969 C 11.773438 26 12.003906 25.90625 12.242188 25.90625 C 12.480469 25.90625 12.710938 26 12.878906 26.167969 L 19.316406 32.609375 C 19.484375 32.777344 19.582031 33.007812 19.582031 33.246094 C 19.582031 33.484375 19.484375 33.710938 19.316406 33.882812 L 18.152344 35.046875 C 17.980469 35.21875 17.753906 35.3125 17.515625 35.3125 C 17.273438 35.3125 17.046875 35.21875 16.878906 35.046875 Z M 16.878906 35.046875 "/></clipPath><clipPath id="e9bfc5cd5b"><path d="M 12.667969 36.332031 L 28 36.332031 L 28 51.734375 L 12.667969 51.734375 Z M 12.667969 36.332031 "/></clipPath><clipPath id="dca4b706ad"><path d="M 25.929688 52.042969 L 12.335938 38.453125 L 14.777344 36.011719 L 28.367188 49.601562 Z M 25.929688 52.042969 "/></clipPath><clipPath id="ee6b59faa5"><path d="M 25.292969 51.40625 L 12.976562 39.089844 C 12.808594 38.921875 12.714844 38.695312 12.714844 38.457031 C 12.714844 38.214844 12.808594 37.988281 12.976562 37.820312 L 14.144531 36.652344 C 14.3125 36.484375 14.542969 36.386719 14.78125 36.386719 C 15.019531 36.386719 15.25 36.484375 15.417969 36.652344 L 27.730469 48.964844 C 27.898438 49.132812 27.996094 49.363281 27.996094 49.601562 C 27.996094 49.839844 27.898438 50.070312 27.730469 50.238281 L 26.5625 51.40625 C 26.394531 51.574219 26.167969 51.667969 25.929688 51.667969 C 25.6875 51.667969 25.460938 51.574219 25.292969 51.40625 Z M 25.292969 51.40625 "/></clipPath><clipPath id="60b9b273b1"><path d="M 24.199219 25.535156 L 50 25.535156 L 50 51.332031 L 24.199219 51.332031 Z M 24.199219 25.535156 "/></clipPath><clipPath id="55ccda0506"><path d="M 23.863281 49.214844 L 47.890625 25.191406 L 50.332031 27.628906 L 26.304688 51.65625 Z M 23.863281 49.214844 "/></clipPath><clipPath id="6f61060f6e"><path d="M 24.5 48.578125 L 47.25 25.828125 C 47.417969 25.660156 47.648438 25.566406 47.886719 25.566406 C 48.125 25.566406 48.355469 25.660156 48.523438 25.828125 L 49.691406 26.996094 C 49.859375 27.164062 49.953125 27.394531 49.953125 27.632812 C 49.953125 27.871094 49.859375 28.101562 49.691406 28.269531 L 26.941406 51.019531 C 26.773438 51.1875 26.542969 51.28125 26.304688 51.28125 C 26.066406 51.28125 25.835938 51.1875 25.667969 51.019531 L 24.5 49.851562 C 24.332031 49.683594 24.238281 49.453125 24.238281 49.214844 C 24.238281 48.976562 24.332031 48.75 24.5 48.578125 Z M 24.5 48.578125 "/></clipPath><clipPath id="ea4a4694eb"><path d="M 19.800781 35.535156 L 30.332031 35.535156 L 30.332031 46.066406 L 19.800781 46.066406 Z M 19.800781 35.535156 "/></clipPath><clipPath id="d02128c059"><path d="M 28.253906 46.414062 L 19.46875 37.628906 L 21.90625 35.1875 L 30.695312 43.976562 Z M 28.253906 46.414062 "/></clipPath><clipPath id="029c5134a6"><path d="M 27.617188 45.777344 L 20.109375 38.269531 C 19.941406 38.101562 19.847656 37.871094 19.847656 37.632812 C 19.847656 37.394531 19.941406 37.167969 20.109375 36.996094 L 21.277344 35.832031 C 21.445312 35.664062 21.675781 35.566406 21.914062 35.566406 C 22.152344 35.566406 22.382812 35.664062 22.550781 35.832031 L 30.058594 43.339844 C 30.226562 43.507812 30.320312 43.738281 30.320312 43.976562 C 30.320312 44.214844 30.226562 44.441406 30.058594 44.613281 L 28.890625 45.777344 C 28.722656 45.949219 28.492188 46.042969 28.253906 46.042969 C 28.015625 46.042969 27.789062 45.949219 27.617188 45.777344 Z M 27.617188 45.777344 "/></clipPath></defs><g id="09d6c1124c"><g clip-rule="nonzero" clip-path="url(#91dafe2a6d)"><g clip-rule="nonzero" clip-path="url(#9ba6f3ed59)"><g clip-rule="nonzero" clip-path="url(#9901ec058d)"><path style=" stroke:none;fill-rule:nonzero;fill:#e0e0e0;fill-opacity:1;" d="M 9.671875 27.789062 L 29.507812 7.957031 L 31.945312 10.398438 L 12.113281 30.230469 Z M 9.671875 27.789062 "/></g></g></g><g clip-rule="nonzero" clip-path="url(#b4f0f54a01)"><g clip-rule="nonzero" clip-path="url(#00a565d2df)"><g clip-rule="nonzero" clip-path="url(#0319b8fc0f)"><path style=" stroke:none;fill-rule:nonzero;fill:#e0e0e0;fill-opacity:1;" d="M 41.785156 25.160156 L 27.566406 10.941406 L 30.007812 8.5 L 44.226562 22.722656 Z M 41.785156 25.160156 "/></g></g></g><g clip-rule="nonzero" clip-path="url(#f2f8e649b2)"><g clip-rule="nonzero" clip-path="url(#45f0fb0fbd)"><g clip-rule="nonzero" clip-path="url(#b672731aa4)"><path style=" stroke:none;fill-rule:nonzero;fill:#e0e0e0;fill-opacity:1;" d="M 33.117188 28.886719 L 40.828125 21.175781 L 43.269531 23.617188 L 35.558594 31.328125 Z M 33.117188 28.886719 "/></g></g></g><g clip-rule="nonzero" clip-path="url(#0a13ef678b)"><g clip-rule="nonzero" clip-path="url(#e9e93acd0b)"><g clip-rule="nonzero" clip-path="url(#bc2e651241)"><path style=" stroke:none;fill-rule:nonzero;fill:#e0e0e0;fill-opacity:1;" d="M 35.117188 30.804688 L 26.339844 22.027344 L 28.777344 19.585938 L 37.554688 28.363281 Z M 35.117188 30.804688 "/></g></g></g><g clip-rule="nonzero" clip-path="url(#78f92042b4)"><g clip-rule="nonzero" clip-path="url(#aa556b9956)"><g clip-rule="nonzero" clip-path="url(#c226100e9b)"><path style=" stroke:none;fill-rule:nonzero;fill:#e0e0e0;fill-opacity:1;" d="M 11.128906 37.296875 L 27.699219 20.722656 L 30.140625 23.160156 L 13.566406 39.734375 Z M 11.128906 37.296875 "/></g></g></g><g clip-rule="nonzero" clip-path="url(#f4af630e32)"><g clip-rule="nonzero" clip-path="url(#15e6138dfd)"><g clip-rule="nonzero" clip-path="url(#a5b18fc264)"><path style=" stroke:none;fill-rule:nonzero;fill:#e0e0e0;fill-opacity:1;" d="M 17.515625 35.683594 L 9.804688 27.976562 L 12.242188 25.535156 L 19.953125 33.246094 Z M 17.515625 35.683594 "/></g></g></g><g clip-rule="nonzero" clip-path="url(#e9bfc5cd5b)"><g clip-rule="nonzero" clip-path="url(#dca4b706ad)"><g clip-rule="nonzero" clip-path="url(#ee6b59faa5)"><path style=" stroke:none;fill-rule:nonzero;fill:#e0e0e0;fill-opacity:1;" d="M 25.929688 52.042969 L 12.335938 38.453125 L 14.777344 36.011719 L 28.367188 49.601562 Z M 25.929688 52.042969 "/></g></g></g><g clip-rule="nonzero" clip-path="url(#60b9b273b1)"><g clip-rule="nonzero" clip-path="url(#55ccda0506)"><g clip-rule="nonzero" clip-path="url(#6f61060f6e)"><path style=" stroke:none;fill-rule:nonzero;fill:#e0e0e0;fill-opacity:1;" d="M 23.863281 49.214844 L 47.890625 25.191406 L 50.332031 27.628906 L 26.304688 51.65625 Z M 23.863281 49.214844 "/></g></g></g><g clip-rule="nonzero" clip-path="url(#ea4a4694eb)"><g clip-rule="nonzero" clip-path="url(#d02128c059)"><g clip-rule="nonzero" clip-path="url(#029c5134a6)"><path style=" stroke:none;fill-rule:nonzero;fill:#e0e0e0;fill-opacity:1;" d="M 28.253906 46.414062 L 19.476562 37.636719 L 21.917969 35.199219 L 30.695312 43.976562 Z M 28.253906 46.414062 "/></g></g></g><path style=" stroke:none;fill-rule:nonzero;fill:#e0e0e0;fill-opacity:1;" d="M 30 60 C 13.457031 60 0 46.542969 0 30 C 0 13.457031 13.457031 0 30 0 C 46.542969 0 60 13.457031 60 30 C 60 46.542969 46.542969 60 30 60 Z M 30 2.5 C 14.835938 2.5 2.5 14.835938 2.5 30 C 2.5 45.164062 14.835938 57.5 30 57.5 C 45.164062 57.5 57.5 45.164062 57.5 30 C 57.5 14.835938 45.164062 2.5 30 2.5 Z M 30 2.5 "/><g style="fill:#e0e0e0;fill-opacity:1;"><g transform="translate(63.350145, 42.798182)"><path style="stroke:none" d="M 4.640625 -28.53125 L 16.265625 -28.53125 C 19.273438 -28.53125 21.929688 -27.921875 24.234375 -26.703125 C 26.546875 -25.492188 28.34375 -23.8125 29.625 -21.65625 C 30.90625 -19.5 31.546875 -17.035156 31.546875 -14.265625 C 31.546875 -11.492188 30.90625 -9.023438 29.625 -6.859375 C 28.34375 -4.703125 26.546875 -3.019531 24.234375 -1.8125 C 21.929688 -0.601562 19.273438 0 16.265625 0 L 4.640625 0 Z M 16.09375 -2.609375 C 18.59375 -2.609375 20.78125 -3.101562 22.65625 -4.09375 C 24.53125 -5.082031 25.984375 -6.453125 27.015625 -8.203125 C 28.046875 -9.960938 28.5625 -11.984375 28.5625 -14.265625 C 28.5625 -16.546875 28.046875 -18.5625 27.015625 -20.3125 C 25.984375 -22.0625 24.53125 -23.429688 22.65625 -24.421875 C 20.78125 -25.421875 18.59375 -25.921875 16.09375 -25.921875 L 7.65625 -25.921875 L 7.65625 -2.609375 Z M 16.09375 -2.609375 "/></g></g><g style="fill:#e0e0e0;fill-opacity:1;"><g transform="translate(97.003169, 42.798182)"><path style="stroke:none" d="M 22.703125 -9.828125 L 4.765625 -9.828125 C 4.929688 -7.597656 5.785156 -5.796875 7.328125 -4.421875 C 8.878906 -3.046875 10.835938 -2.359375 13.203125 -2.359375 C 14.535156 -2.359375 15.757812 -2.597656 16.875 -3.078125 C 17.988281 -3.554688 18.953125 -4.253906 19.765625 -5.171875 L 21.390625 -3.296875 C 20.441406 -2.160156 19.253906 -1.289062 17.828125 -0.6875 C 16.398438 -0.09375 14.832031 0.203125 13.125 0.203125 C 10.925781 0.203125 8.976562 -0.265625 7.28125 -1.203125 C 5.582031 -2.140625 4.253906 -3.4375 3.296875 -5.09375 C 2.347656 -6.75 1.875 -8.625 1.875 -10.71875 C 1.875 -12.8125 2.328125 -14.6875 3.234375 -16.34375 C 4.148438 -18 5.398438 -19.285156 6.984375 -20.203125 C 8.578125 -21.128906 10.363281 -21.59375 12.34375 -21.59375 C 14.332031 -21.59375 16.113281 -21.128906 17.6875 -20.203125 C 19.257812 -19.285156 20.492188 -18.003906 21.390625 -16.359375 C 22.285156 -14.710938 22.734375 -12.832031 22.734375 -10.71875 Z M 12.34375 -19.109375 C 10.28125 -19.109375 8.546875 -18.445312 7.140625 -17.125 C 5.742188 -15.8125 4.953125 -14.097656 4.765625 -11.984375 L 19.96875 -11.984375 C 19.78125 -14.097656 18.984375 -15.8125 17.578125 -17.125 C 16.179688 -18.445312 14.4375 -19.109375 12.34375 -19.109375 Z M 12.34375 -19.109375 "/></g></g><g style="fill:#e0e0e0;fill-opacity:1;"><g transform="translate(121.611429, 42.798182)"><path style="stroke:none" d="M 12.921875 0.203125 C 10.796875 0.203125 8.898438 -0.253906 7.234375 -1.171875 C 5.566406 -2.097656 4.253906 -3.394531 3.296875 -5.0625 C 2.347656 -6.738281 1.875 -8.625 1.875 -10.71875 C 1.875 -12.8125 2.347656 -14.6875 3.296875 -16.34375 C 4.253906 -18 5.566406 -19.285156 7.234375 -20.203125 C 8.898438 -21.128906 10.796875 -21.59375 12.921875 -21.59375 C 14.765625 -21.59375 16.410156 -21.234375 17.859375 -20.515625 C 19.316406 -19.796875 20.46875 -18.742188 21.3125 -17.359375 L 19.15625 -15.890625 C 18.445312 -16.953125 17.546875 -17.75 16.453125 -18.28125 C 15.367188 -18.8125 14.191406 -19.078125 12.921875 -19.078125 C 11.367188 -19.078125 9.972656 -18.726562 8.734375 -18.03125 C 7.503906 -17.34375 6.539062 -16.359375 5.84375 -15.078125 C 5.15625 -13.796875 4.8125 -12.34375 4.8125 -10.71875 C 4.8125 -9.0625 5.15625 -7.597656 5.84375 -6.328125 C 6.539062 -5.066406 7.503906 -4.085938 8.734375 -3.390625 C 9.972656 -2.703125 11.367188 -2.359375 12.921875 -2.359375 C 14.191406 -2.359375 15.367188 -2.613281 16.453125 -3.125 C 17.546875 -3.644531 18.445312 -4.4375 19.15625 -5.5 L 21.3125 -4.03125 C 20.46875 -2.644531 19.3125 -1.59375 17.84375 -0.875 C 16.375 -0.15625 14.734375 0.203125 12.921875 0.203125 Z M 12.921875 0.203125 "/></g></g><g style="fill:#e0e0e0;fill-opacity:1;"><g transform="translate(144.182559, 42.798182)"><path style="stroke:none" d="M 22.703125 -9.828125 L 4.765625 -9.828125 C 4.929688 -7.597656 5.785156 -5.796875 7.328125 -4.421875 C 8.878906 -3.046875 10.835938 -2.359375 13.203125 -2.359375 C 14.535156 -2.359375 15.757812 -2.597656 16.875 -3.078125 C 17.988281 -3.554688 18.953125 -4.253906 19.765625 -5.171875 L 21.390625 -3.296875 C 20.441406 -2.160156 19.253906 -1.289062 17.828125 -0.6875 C 16.398438 -0.09375 14.832031 0.203125 13.125 0.203125 C 10.925781 0.203125 8.976562 -0.265625 7.28125 -1.203125 C 5.582031 -2.140625 4.253906 -3.4375 3.296875 -5.09375 C 2.347656 -6.75 1.875 -8.625 1.875 -10.71875 C 1.875 -12.8125 2.328125 -14.6875 3.234375 -16.34375 C 4.148438 -18 5.398438 -19.285156 6.984375 -20.203125 C 8.578125 -21.128906 10.363281 -21.59375 12.34375 -21.59375 C 14.332031 -21.59375 16.113281 -21.128906 17.6875 -20.203125 C 19.257812 -19.285156 20.492188 -18.003906 21.390625 -16.359375 C 22.285156 -14.710938 22.734375 -12.832031 22.734375 -10.71875 Z M 12.34375 -19.109375 C 10.28125 -19.109375 8.546875 -18.445312 7.140625 -17.125 C 5.742188 -15.8125 4.953125 -14.097656 4.765625 -11.984375 L 19.96875 -11.984375 C 19.78125 -14.097656 18.984375 -15.8125 17.578125 -17.125 C 16.179688 -18.445312 14.4375 -19.109375 12.34375 -19.109375 Z M 12.34375 -19.109375 "/></g></g><g style="fill:#e0e0e0;fill-opacity:1;"><g transform="translate(168.790819, 42.798182)"><path style="stroke:none" d="M 15.078125 -21.59375 C 17.085938 -21.59375 18.90625 -21.140625 20.53125 -20.234375 C 22.164062 -19.328125 23.441406 -18.039062 24.359375 -16.375 C 25.285156 -14.71875 25.75 -12.832031 25.75 -10.71875 C 25.75 -8.570312 25.285156 -6.671875 24.359375 -5.015625 C 23.441406 -3.359375 22.175781 -2.070312 20.5625 -1.15625 C 18.945312 -0.25 17.117188 0.203125 15.078125 0.203125 C 13.335938 0.203125 11.765625 -0.15625 10.359375 -0.875 C 8.960938 -1.59375 7.816406 -2.644531 6.921875 -4.03125 L 6.921875 7.90625 L 4.03125 7.90625 L 4.03125 -21.4375 L 6.8125 -21.4375 L 6.8125 -17.203125 C 7.675781 -18.609375 8.820312 -19.691406 10.25 -20.453125 C 11.675781 -21.210938 13.285156 -21.59375 15.078125 -21.59375 Z M 14.875 -2.359375 C 16.363281 -2.359375 17.71875 -2.703125 18.9375 -3.390625 C 20.164062 -4.085938 21.125 -5.070312 21.8125 -6.34375 C 22.507812 -7.625 22.859375 -9.082031 22.859375 -10.71875 C 22.859375 -12.34375 22.507812 -13.785156 21.8125 -15.046875 C 21.125 -16.316406 20.164062 -17.304688 18.9375 -18.015625 C 17.71875 -18.722656 16.363281 -19.078125 14.875 -19.078125 C 13.351562 -19.078125 11.988281 -18.722656 10.78125 -18.015625 C 9.570312 -17.304688 8.617188 -16.316406 7.921875 -15.046875 C 7.234375 -13.785156 6.890625 -12.34375 6.890625 -10.71875 C 6.890625 -9.082031 7.234375 -7.625 7.921875 -6.34375 C 8.617188 -5.070312 9.570312 -4.085938 10.78125 -3.390625 C 11.988281 -2.703125 13.351562 -2.359375 14.875 -2.359375 Z M 14.875 -2.359375 "/></g></g><g style="fill:#e0e0e0;fill-opacity:1;"><g transform="translate(196.41401, 42.798182)"><path style="stroke:none" d="M 15.328125 -1.296875 C 14.773438 -0.816406 14.097656 -0.445312 13.296875 -0.1875 C 12.503906 0.0703125 11.671875 0.203125 10.796875 0.203125 C 8.785156 0.203125 7.234375 -0.335938 6.140625 -1.421875 C 5.054688 -2.515625 4.515625 -4.050781 4.515625 -6.03125 L 4.515625 -18.984375 L 0.6875 -18.984375 L 0.6875 -21.4375 L 4.515625 -21.4375 L 4.515625 -26.125 L 7.421875 -26.125 L 7.421875 -21.4375 L 13.9375 -21.4375 L 13.9375 -18.984375 L 7.421875 -18.984375 L 7.421875 -6.1875 C 7.421875 -4.914062 7.738281 -3.945312 8.375 -3.28125 C 9.007812 -2.613281 9.925781 -2.28125 11.125 -2.28125 C 11.71875 -2.28125 12.289062 -2.375 12.84375 -2.5625 C 13.40625 -2.757812 13.890625 -3.03125 14.296875 -3.375 Z M 15.328125 -1.296875 "/></g></g><g style="fill:#e0e0e0;fill-opacity:1;"><g transform="translate(212.955338, 42.798182)"><path style="stroke:none" d="M 11.53125 -21.59375 C 14.332031 -21.59375 16.476562 -20.894531 17.96875 -19.5 C 19.46875 -18.101562 20.21875 -16.03125 20.21875 -13.28125 L 20.21875 0 L 17.4375 0 L 17.4375 -3.34375 C 16.789062 -2.226562 15.832031 -1.359375 14.5625 -0.734375 C 13.300781 -0.109375 11.800781 0.203125 10.0625 0.203125 C 7.675781 0.203125 5.773438 -0.363281 4.359375 -1.5 C 2.941406 -2.644531 2.234375 -4.15625 2.234375 -6.03125 C 2.234375 -7.851562 2.890625 -9.320312 4.203125 -10.4375 C 5.523438 -11.550781 7.628906 -12.109375 10.515625 -12.109375 L 17.3125 -12.109375 L 17.3125 -13.40625 C 17.3125 -15.25 16.796875 -16.65625 15.765625 -17.625 C 14.734375 -18.59375 13.226562 -19.078125 11.25 -19.078125 C 9.882812 -19.078125 8.578125 -18.847656 7.328125 -18.390625 C 6.078125 -17.941406 5.003906 -17.328125 4.109375 -16.546875 L 2.8125 -18.703125 C 3.894531 -19.628906 5.195312 -20.34375 6.71875 -20.84375 C 8.238281 -21.34375 9.84375 -21.59375 11.53125 -21.59375 Z M 10.515625 -2.078125 C 12.140625 -2.078125 13.535156 -2.445312 14.703125 -3.1875 C 15.878906 -3.9375 16.75 -5.019531 17.3125 -6.4375 L 17.3125 -9.9375 L 10.59375 -9.9375 C 6.925781 -9.9375 5.09375 -8.660156 5.09375 -6.109375 C 5.09375 -4.859375 5.566406 -3.875 6.515625 -3.15625 C 7.472656 -2.4375 8.804688 -2.078125 10.515625 -2.078125 Z M 10.515625 -2.078125 "/></g></g></g></svg>